<svg id="Icon_-_Instagram" data-name="Icon - Instagram" xmlns="http://www.w3.org/2000/svg" width="28.235" height="28.235" viewBox="0 0 28.235 28.235">
  <path id="Ig" d="M16.611,7.294A1.694,1.694,0,1,0,14.917,5.6,1.694,1.694,0,0,0,16.611,7.294Z" transform="translate(4.826 1.264)" fill="#fff"/>
  <path id="Ig-2" data-name="Ig" d="M5.339,12.387A7.059,7.059,0,1,0,12.4,5.328,7.066,7.066,0,0,0,5.339,12.387Zm3.536.007A3.529,3.529,0,1,1,12.4,15.923,3.533,3.533,0,0,1,8.875,12.394Z" transform="translate(1.727 1.724)" fill="#fff"/>
  <path id="Ig-3" data-name="Ig" d="M7.059,28.235H21.176a7.436,7.436,0,0,0,7.059-7.059V7.059A7.436,7.436,0,0,0,21.176,0H7.059A7.436,7.436,0,0,0,0,7.059V21.176A7.436,7.436,0,0,0,7.059,28.235ZM3.529,7.059A4,4,0,0,1,7.059,3.529H21.176a4,4,0,0,1,3.529,3.529V21.176a4,4,0,0,1-3.529,3.529H7.059a3.938,3.938,0,0,1-3.529-3.529Z" transform="translate(0 0)" fill="#fff"/>
</svg>
