<svg xmlns="http://www.w3.org/2000/svg" width="32.033" height="32.033" viewBox="0 0 32.033 32.033">
  <path id="Icon_awesome-bullseye" data-name="Icon awesome-bullseye" d="M16.017.563A16.017,16.017,0,1,0,32.033,16.579,16.016,16.016,0,0,0,16.017.563Zm0,27.9A11.883,11.883,0,1,1,27.9,16.579,11.877,11.877,0,0,1,16.017,28.463Zm0-20.15a8.267,8.267,0,1,0,8.267,8.267A8.267,8.267,0,0,0,16.017,8.313Zm0,12.4a4.133,4.133,0,1,1,4.133-4.133A4.138,4.138,0,0,1,16.017,20.713Z" transform="translate(0 -0.563)" fill="#fcfc00"/>
</svg>
