<svg id="Icon_-_Twitter" data-name="Icon - Twitter" xmlns="http://www.w3.org/2000/svg" width="30" height="24.706" viewBox="0 0 30 24.706">
  <path id="Twitter" d="M14.567-12.095l.065,1.069-1.084-.131A17.653,17.653,0,0,1,3.23-16.216L1.8-17.634l-.369,1.047a6.278,6.278,0,0,0,1.344,6.455c.867.916.672,1.047-.824.5A2.564,2.564,0,0,0,.932-9.87a7.792,7.792,0,0,0,.78,2.922,6.99,6.99,0,0,0,2.97,2.791l1.062.5-1.257.022c-1.214,0-1.257.022-1.127.48A6.545,6.545,0,0,0,7.413.423L8.757.881l-1.171.7A12.236,12.236,0,0,1,1.777,3.193,6.44,6.44,0,0,0,0,3.367,16.516,16.516,0,0,0,4.184,5.286,18.366,18.366,0,0,0,18.4,3.673a18.982,18.982,0,0,0,7.218-8.462A22.428,22.428,0,0,0,27.1-11.331c0-1,.065-1.134,1.279-2.333a14.256,14.256,0,0,0,1.517-1.679c.217-.414.2-.414-.91-.044-1.843.654-2.1.567-1.192-.414a6.34,6.34,0,0,0,1.474-2.333c0-.065-.325.044-.694.24a12.118,12.118,0,0,1-1.908.741l-1.171.371L24.43-17.5a8.834,8.834,0,0,0-1.843-.96,7.43,7.43,0,0,0-3.793.087A6.244,6.244,0,0,0,14.567-12.095Z" transform="translate(0 18.667)" fill="#fff"/>
</svg>
